<?xml version="1.0" standalone="no"?>
<!DOCTYPE svg PUBLIC "-//W3C//DTD SVG 20010904//EN"
 "http://www.w3.org/TR/2001/REC-SVG-20010904/DTD/svg10.dtd">
<svg version="1.0" xmlns="http://www.w3.org/2000/svg"
 width="2048.000000pt" height="2048.000000pt" viewBox="0 0 2048.000000 2048.000000"
 preserveAspectRatio="xMidYMid meet">

<g transform="translate(0.000000,2048.000000) scale(0.100000,-0.100000)"
fill="#000000" stroke="none">
<path d="M4425 16249 c-181 -6 -333 -13 -336 -17 -4 -4 -13 -246 -19 -537 -13
-555 -8 -819 26 -1230 14 -174 54 -483 74 -575 5 -25 28 -135 50 -245 38 -193
47 -229 104 -417 33 -113 118 -342 156 -424 16 -36 30 -70 30 -76 0 -5 6 -22
14 -36 8 -15 38 -74 65 -132 53 -109 91 -181 102 -190 4 -3 17 -25 30 -49 37
-68 45 -80 65 -104 11 -12 28 -38 38 -57 17 -30 131 -183 161 -216 5 -6 30
-34 54 -62 65 -77 208 -220 281 -282 35 -30 70 -59 76 -65 44 -38 109 -88 178
-137 45 -31 87 -62 94 -68 7 -7 51 -35 99 -63 47 -29 106 -65 132 -80 41 -25
140 -74 256 -127 22 -10 76 -35 120 -55 44 -21 91 -41 105 -45 14 -5 70 -25
125 -45 225 -83 426 -139 685 -193 230 -48 295 -59 470 -81 530 -64 767 -74
1551 -65 l586 7 7 106 c14 236 19 990 7 1241 -17 355 -46 675 -81 885 -6 33
-24 144 -41 248 -95 589 -317 1187 -592 1597 -240 356 -630 727 -981 931 -32
19 -79 47 -104 62 -244 145 -664 314 -1016 407 -301 80 -679 143 -1057 176
-219 19 -1051 26 -1514 13z"/>
<path d="M14725 16254 c-677 -29 -1141 -107 -1655 -277 -124 -41 -238 -80
-255 -87 -16 -7 -43 -19 -60 -25 -259 -110 -506 -241 -692 -370 -59 -40 -169
-121 -190 -140 -6 -5 -26 -21 -44 -35 -188 -143 -457 -441 -614 -680 -33 -50
-29 -43 -111 -190 -78 -137 -154 -295 -154 -317 0 -7 -3 -13 -8 -13 -4 0 -13
-19 -20 -42 -12 -38 -52 -138 -71 -178 -4 -8 -18 -49 -30 -90 -13 -41 -27 -84
-31 -95 -8 -19 -52 -178 -89 -320 -65 -247 -134 -730 -166 -1160 -23 -303 -29
-792 -16 -1240 7 -219 13 -400 14 -401 20 -20 1419 -25 1642 -6 572 49 808 85
1233 192 212 53 480 146 667 230 128 57 242 111 265 125 14 9 52 30 85 47 33
17 62 34 65 38 3 4 25 18 50 30 78 39 223 138 285 193 11 10 35 27 53 38 17
12 32 25 32 30 0 5 4 9 8 9 21 0 278 249 367 355 32 39 67 77 77 86 10 9 18
20 18 25 0 5 14 25 31 44 18 19 43 53 56 74 14 22 30 44 35 50 8 10 24 34 60
91 7 11 15 22 18 25 3 3 18 30 34 60 48 90 51 95 57 100 3 3 15 25 28 50 12
25 32 63 44 85 13 22 29 56 36 75 21 55 45 105 54 108 4 2 7 10 7 18 0 8 4 22
9 32 20 37 40 92 86 232 25 80 51 153 56 162 5 10 9 26 9 36 0 10 4 22 9 28 8
8 30 94 101 389 55 229 109 621 142 1040 13 172 14 1066 0 1380 l-7 170 -140
6 c-166 8 -1265 18 -1380 13z"/>
<path d="M8370 9904 c-246 -11 -746 -58 -950 -90 -311 -49 -656 -138 -935
-242 -44 -16 -107 -40 -140 -52 -88 -33 -430 -200 -502 -246 -34 -21 -86 -54
-116 -71 -48 -29 -264 -186 -277 -202 -3 -4 -52 -47 -110 -97 -455 -394 -783
-918 -1015 -1622 -53 -158 -89 -309 -139 -577 -95 -502 -128 -962 -120 -1660
4 -317 20 -795 28 -802 1 -2 144 -8 317 -14 362 -13 1340 -6 1499 10 58 6 155
16 215 22 224 22 609 90 848 149 287 72 586 182 857 316 615 306 1030 683
1362 1239 200 335 387 830 468 1235 48 243 103 640 129 930 31 344 39 969 19
1495 -5 121 -8 229 -8 241 0 20 -7 21 -128 27 -149 8 -1178 16 -1302 11z"/>
<path d="M10836 9898 c-165 -5 -301 -10 -303 -11 -1 -2 -8 -142 -14 -313 -14
-379 -6 -1142 15 -1409 33 -412 109 -912 177 -1160 366 -1337 1132 -2130 2447
-2531 243 -74 693 -168 947 -198 426 -50 442 -51 1210 -49 402 0 775 5 830 10
l100 8 7 110 c14 246 20 1073 9 1300 -17 350 -50 669 -96 930 -22 127 -84 424
-105 500 -92 348 -259 756 -428 1045 -212 363 -504 687 -863 956 -157 118
-268 186 -472 290 -625 318 -1293 474 -2232 524 -221 12 -800 11 -1229 -2z"/>
</g>
</svg>
